<?xml version="1.0" standalone="no"?>
<!DOCTYPE svg PUBLIC "-//W3C//DTD SVG 20010904//EN"
 "http://www.w3.org/TR/2001/REC-SVG-20010904/DTD/svg10.dtd">
<svg version="1.0"
  xmlns="http://www.w3.org/2000/svg" width="700.000000pt" height="700.000000pt" viewBox="0 0 700.000000 700.000000" preserveAspectRatio="xMidYMid meet">
  <g transform="translate(0.000000,700.000000) scale(0.100000,-0.100000)" fill="#000000" stroke="none">
    <path d="M1269 6996 c-2 -2 -29 -7 -59 -10 -289 -35 -591 -186 -808 -406 -90
-91 -242 -301 -242 -334 0 -5 -6 -17 -13 -25 -39 -46 -118 -305 -136 -445 -6
-42 -10 -980 -10 -2281 0 -2247 0 -2223 33 -2402 34 -185 163 -439 305 -603
71 -83 67 -79 127 -131 83 -73 96 -82 169 -130 148 -96 301 -159 486 -201
l104 -23 2275 0 2275 0 104 23 c278 63 506 184 695 369 218 214 350 466 405
768 20 108 20 154 20 2340 0 1923 -2 2240 -15 2305 -8 41 -17 87 -19 102 -11
62 -60 199 -101 286 -145 308 -399 553 -713 688 -77 33 -218 77 -281 88 -19 3
-46 9 -60 13 -25 8 -4533 17 -4541 9z"/>
  </g>
</svg>
